<svg id="Capa_1" enable-background="new 0 0 512 512" height="512" viewBox="0 0 512 512" width="512" xmlns="http://www.w3.org/2000/svg"><g><path d="m482.667 166.512h-80.34v-43.667h80.34c12.058 0 21.833 9.775 21.833 21.833 0 12.059-9.775 21.834-21.833 21.834z" fill="#407093"/><path d="m402.328 166.512h68.73v-21.833c0-7.432-.385-14.722-1.117-21.833h-67.614v43.666z" fill="#365e7d"/><path d="m142.442 281.856h192.906v-115.293l-104.695-21.884z" fill="#d0cee7"/><path d="m230.653 144.679v347.534c0 5.837 6.588 9.242 11.35 5.866l21.159-15.003c2.491-1.767 5.827-1.767 8.318 0l28.349 20.101c2.492 1.767 5.827 1.767 8.319 0l28.344-20.101c2.492-1.767 5.827-1.767 8.319 0l28.345 20.101c2.492 1.767 5.828 1.767 8.319 0l28.343-20.1c2.492-1.767 5.828-1.767 8.319 0l21.152 15.001c4.762 3.377 11.35-.028 11.35-5.865v-347.534c0-75.761-39.494-137.177-88.211-137.177h-219.986z" fill="#f9f6f9"/><g><path d="m362.428 7.502h-28.886c48.718 0 88.211 61.416 88.211 137.177v340.962l17.535 12.436c4.761 3.377 11.35-.028 11.35-5.865v-347.533c.002-75.761-39.492-137.177-88.21-137.177z" fill="#dddaec"/></g><ellipse cx="142.442" cy="144.679" fill="#dddaec" rx="88.211" ry="137.177"/><ellipse cx="142.442" cy="144.679" fill="#d0cee7" rx="40.949" ry="63.679"/><path d="m180.92 122.846h-151.587c-12.058 0-21.833 9.775-21.833 21.833s9.775 21.833 21.833 21.833h151.587c1.598-6.81 2.471-14.163 2.471-21.833s-.873-15.023-2.471-21.833z" fill="#407093"/><path d="m180.932 122.901c-.004-.018-.008-.037-.012-.056h-19.737c1.599 6.81 2.478 14.161 2.478 21.833s-.878 15.023-2.478 21.833h19.737c1.669-7.117 2.471-14.742 2.471-21.833 0-7.518-.891-15.077-2.459-21.777z" fill="#365e7d"/><g><path d="m482.667 115.346h-26.487c-3.622-26.919-12.204-51.717-25.068-71.723-18.09-28.129-42.482-43.621-68.684-43.621h-55.057c-4.143 0-7.5 3.357-7.5 7.5s3.357 7.5 7.5 7.5h55.057c20.922 0 40.834 13.046 56.066 36.734 15.893 24.715 24.646 57.722 24.646 92.942v155.108c-3.424.695-6 3.721-6 7.349s2.576 6.655 6 7.349v97.829c0 4.143 3.357 7.5 7.5 7.5s7.5-3.357 7.5-7.5v-238.3h24.527c16.174 0 29.333-13.159 29.333-29.334 0-16.174-13.159-29.333-29.333-29.333zm0 43.667h-24.527v-14.334c0-4.817-.156-9.599-.46-14.333h24.988c7.903 0 14.333 6.431 14.333 14.334s-6.431 14.333-14.334 14.333z"/><path d="m450.64 435.802c-4.143 0-7.5 3.357-7.5 7.5v48.312l-20.665-14.656c-5.08-3.601-11.911-3.603-16.995.001l-28.164 19.974-28.167-19.975c-5.081-3.601-11.912-3.603-16.995.001l-28.165 19.975-28.169-19.976c-5.082-3.603-11.911-3.604-16.995 0l-20.671 14.657v-177.13c3.424-.695 6-3.721 6-7.349s-2.576-6.655-6-7.349v-155.108c0-38.062-9.599-73.951-27.028-101.056-7.628-11.863-16.381-21.468-25.915-28.621h91.173c4.143 0 7.5-3.357 7.5-7.5s-3.357-7.5-7.5-7.5h-133.942c-45.836 0-84.712 48.194-93.755 115.344h-19.354c-16.174 0-29.333 13.159-29.333 29.333 0 16.175 13.159 29.334 29.333 29.334h19.366c4.323 31.959 15.689 60.87 32.277 81.831 1.48 1.87 3.672 2.846 5.886 2.846 1.63 0 3.271-.528 4.649-1.619 3.248-2.57 3.797-7.287 1.227-10.535-14.599-18.449-24.747-44.01-28.899-72.522h34.383c7.734 25.562 24.767 41.846 44.22 41.846 13.578 0 26.102-7.847 35.263-22.095 9.085-14.127 13.186-32.087 13.186-49.085 0-16.958-4.088-34.937-13.186-49.084-9.161-14.249-21.684-22.096-35.263-22.096-19.464 0-36.488 16.279-44.221 41.846h-34.377c4.007-27.478 13.625-52.357 27.423-70.63 14.469-19.161 32.644-29.714 51.176-29.714 20.922 0 40.833 13.046 56.066 36.734 15.893 24.715 24.645 57.722 24.645 92.942s-8.752 68.229-24.645 92.943c-15.233 23.688-35.145 36.734-56.066 36.734-9.389 0-18.615-2.631-27.426-7.819-3.567-2.099-8.165-.911-10.269 2.657-2.102 3.569-.912 8.166 2.657 10.269 11.147 6.564 22.936 9.894 35.037 9.894h80.711v202.856c0 5.517 3.045 10.518 7.945 13.051 4.9 2.532 10.742 2.124 15.242-1.066l20.98-14.877 28.171 19.976c5.082 3.601 11.913 3.604 16.995-.001l28.164-19.975 28.166 19.975c2.542 1.802 5.52 2.703 8.498 2.703s5.956-.901 8.498-2.703l28.165-19.975 20.972 14.875c4.501 3.19 10.341 3.602 15.243 1.067 4.901-2.533 7.946-7.534 7.946-13.051v-48.91c.002-4.142-3.356-7.499-7.498-7.499zm-435.64-291.123c0-7.903 6.43-14.333 14.333-14.333h145.399c.782 4.787 1.158 9.721 1.158 14.333 0 4.618-.376 9.544-1.158 14.334h-145.399c-7.903 0-14.333-6.431-14.333-14.334zm127.442 56.179c-11.45 0-22.296-10.506-28.398-26.846h56.748c-5.974 15.972-16.565 26.846-28.35 26.846zm0-112.358c11.785 0 22.376 10.875 28.35 26.846h-56.748c6.101-16.344 16.94-26.846 28.398-26.846zm42.768 185.856c9.533-7.154 18.286-16.759 25.915-28.622 4.561-7.093 8.571-14.8 12.028-22.978v51.6z"/><path d="m268.877 299.636c-4.143 0-7.5 3.357-7.5 7.5s3.357 7.5 7.5 7.5h11.718c4.143 0 7.5-3.357 7.5-7.5s-3.357-7.5-7.5-7.5z"/><path d="m368.476 314.636c4.143 0 7.5-3.357 7.5-7.5s-3.357-7.5-7.5-7.5h-11.717c-4.143 0-7.5 3.357-7.5 7.5s3.357 7.5 7.5 7.5z"/><path d="m412.417 314.636c4.143 0 7.5-3.357 7.5-7.5s-3.357-7.5-7.5-7.5h-11.718c-4.143 0-7.5 3.357-7.5 7.5s3.357 7.5 7.5 7.5z"/><path d="m324.535 314.636c4.143 0 7.5-3.357 7.5-7.5s-3.357-7.5-7.5-7.5h-11.718c-4.143 0-7.5 3.357-7.5 7.5s3.357 7.5 7.5 7.5z"/></g></g></svg>